<svg version="1.0" xmlns="http://www.w3.org/2000/svg" width="300.000000pt"
     height="159.000000pt"
       viewBox="0 0 300.000000 159.000000" preserveAspectRatio="xMidYMid meet">
       <g transform="translate(0.000000,159.000000) scale(0.100000,-0.100000)"
     fill="currentColor"
         stroke="none" fill-rule="evenodd">
         <path
           d="M692 1493 c-11 -10 -68 -128 -127 -263 -107 -245 -266 -605 -416 -945 -43 -99
     -79 -190 -79 -201 0 -44 28 -54 156 -54 65 0 124 4 130 8 6 4 18 21 26 37 14 28 427
     1017 442 1059 3 10 8 17 10 15 2 -2 106 -249 231 -549 125 -300 235 -551 243 -557 11 -9
      55 -13 138 -13 116 0 124 1 138 22 9 12 16 28 16 34 0 27 -603 1390 -622 1407 -17 14
     -41 17 -143 17 -103 0 -126 -3 -143 -17z" />
         <path
           d="M1447 1492 c-26 -29 -21 -62 32 -179 26 -59 160 -364 296 -678 137 -314 255
     -578 263 -587 13 -16 34 -18 153 -18 133 0 139 1 153 23 8 12 87 189 177 392 203 464
     290 663 368 839 93 213 88 226 -92 226 -99 0 -120 -3 -134 -18 -10 -9 -119 -261 -243
     -559 -124 -299 -227 -543 -230 -543 -3 0 -29 60 -59 133 -197 481 -404 964 -418 975 -11
      8 -56 12 -133 12 -101 0 -119 -3 -133 -18z" />
       </g>
     </svg>